<svg width="46" height="16" fill="none" xmlns="http://www.w3.org/2000/svg"><path d="M17.47 1.168 11.743 15.27H7.96L5.052 4.015c-.177-.693-.329-.947-.857-1.24-.862-.475-2.285-.921-3.536-1.198l.083-.41h6.089c.776 0 1.476.526 1.657 1.438l1.547 8.16 3.677-9.598h3.759Zm14.868 9.498c-.003-3.722-5.067-3.927-5.04-5.59.008-.506.478-1.044 1.511-1.181.513-.069 1.925-.121 3.531.63l.614-2.99c-.862-.318-1.972-.625-3.35-.625-3.537 0-6.017 1.917-6.024 4.662-.013 2.03 1.792 3.163 3.15 3.838 1.399.69 1.869 1.134 1.867 1.752-.006.946-1.106 1.364-2.136 1.38-1.799.029-2.845-.496-3.679-.89l-.633 3.09c.838.39 2.383.732 3.983.749 3.76 0 6.209-1.893 6.206-4.825ZM41.7 15.27h3.31L42.052 1.168h-3.054c-.687 0-1.265.407-1.518 1.034l-5.306 13.069h3.757l.736-2.107h4.591l.442 2.107Zm-4.017-4.997 1.858-5.295 1.11 5.295h-2.968Zm-15.1-9.105-2.89 14.103h-3.578l2.892-14.103h3.577Z" fill="#fff"/></svg>