<svg width="48" height="49" fill="none" xmlns="http://www.w3.org/2000/svg"><circle cx="24" cy="24.976" r="24" fill="#F55"/><path d="m24 14.976-1.302 5.206c-.253 1.016-.38 1.524-.645 1.937a3 3 0 0 1-.91.91c-.413.265-.921.392-1.937.646L14 24.976l5.206 1.302c1.016.254 1.524.38 1.937.645.366.234.676.544.91.91.265.413.392.921.645 1.937L24 34.976l1.302-5.206c.253-1.016.38-1.524.645-1.937.234-.366.544-.676.91-.91.413-.264.921-.391 1.937-.645L34 24.976l-5.206-1.301c-1.016-.254-1.524-.381-1.937-.646a3 3 0 0 1-.91-.91c-.265-.413-.392-.921-.645-1.937L24 14.976Z" stroke="#fff" stroke-width="2" stroke-linecap="round" stroke-linejoin="round"/></svg>