<svg width="720" height="721" fill="none" xmlns="http://www.w3.org/2000/svg"><path d="M461.741 258.456c53.341 53.341 86.596 116.638 97.261 175.836 10.665 59.2-1.266 114.25-38.218 151.201-36.951 36.952-92.001 48.883-151.201 38.218-59.198-10.665-122.495-43.92-175.836-97.261-53.341-53.341-86.596-116.638-97.26-175.836-10.666-59.2 1.265-114.25 38.217-151.201 36.951-36.952 92.001-48.883 151.201-38.218 59.198 10.665 122.495 43.92 175.836 97.261Z" stroke="#fff"/><path d="M493.741 226.456c53.341 53.341 86.596 116.638 97.261 175.836 10.665 59.2-1.266 114.25-38.218 151.201-36.951 36.952-92.001 48.883-151.201 38.218-59.198-10.665-122.495-43.92-175.836-97.261-53.341-53.341-86.596-116.638-97.261-175.836-10.665-59.2 1.266-114.25 38.218-151.201 36.951-36.952 92.001-48.883 151.201-38.218 59.198 10.665 122.495 43.92 175.836 97.261Z" stroke="#fff"/><path d="M525.741 194.456c53.341 53.341 86.596 116.638 97.261 175.836 10.665 59.2-1.266 114.25-38.218 151.201-36.951 36.952-92.001 48.883-151.201 38.218-59.198-10.665-122.495-43.92-175.836-97.261-53.341-53.341-86.596-116.638-97.261-175.836-10.665-59.2 1.266-114.25 38.218-151.201 36.951-36.952 92.001-48.883 151.201-38.218 59.198 10.665 122.495 43.92 175.836 97.261Z" stroke="#fff"/></svg>