<svg width="26" height="33" fill="none" xmlns="http://www.w3.org/2000/svg"><path d="M21.527 17.53c-.033-3.994 3.276-5.941 3.43-6.028-1.876-2.73-4.783-3.105-5.808-3.132-2.445-.254-4.81 1.46-6.056 1.46-1.266 0-3.182-1.433-5.252-1.393-2.66.04-5.145 1.58-6.505 3.962-2.813 4.864-.716 12.01 1.983 15.945 1.347 1.927 2.921 4.075 4.984 4 2.017-.08 2.774-1.284 5.206-1.284 2.411 0 3.121 1.285 5.225 1.238 2.164-.033 3.53-1.934 4.83-3.874 1.56-2.208 2.184-4.383 2.21-4.49-.053-.033-4.206-1.62-4.247-6.403ZM17.555 5.78C18.64 4.424 19.384 2.584 19.176.71c-1.568.067-3.537 1.084-4.663 2.409-.998 1.17-1.895 3.084-1.66 4.884 1.754.127 3.57-.89 4.702-2.221Z" fill="#000"/></svg>