<svg width="67" height="30" fill="none" xmlns="http://www.w3.org/2000/svg"><path d="M6.586 23.13c1.036 0 1.953-.19 2.75-.568a4.068 4.068 0 0 0 1.822-1.793v2.003h4.184V6.456H10.86v9.532c0 .936-.28 1.694-.837 2.271-.558.558-1.275.837-2.152.837-.876 0-1.593-.279-2.151-.837-.558-.578-.837-1.335-.837-2.27V6.455H.401v9.89c0 2.033.528 3.676 1.583 4.931 1.076 1.235 2.61 1.853 4.602 1.853ZM18.618 4.991h4.483V.51h-4.483V4.99Zm0 17.78h4.483V6.456h-4.483v16.316ZM28.353 22.771h4.482v-12.43h3.496V6.455h-3.496v-.24c0-1.454.847-2.181 2.54-2.181.28 0 .608.03.986.09V.3c-.458-.1-.986-.15-1.583-.15-2.032 0-3.616.528-4.752 1.584-1.115 1.056-1.673 2.55-1.673 4.482v.24h-2.75v3.884h2.75v12.431ZM38.637 22.771h4.483v-8.785c0-1.215.338-2.152 1.016-2.809.677-.677 1.563-1.016 2.66-1.016H48.2V6.276h-.957c-.996 0-1.882.19-2.66.568-.756.359-1.344 1.046-1.762 2.062v-2.45h-4.184v16.316ZM52.704 29.405c2.988 0 5.15-1.703 6.485-5.11l6.992-17.84h-4.81l-3.856 10.49-3.855-10.49h-4.81l6.424 16.316-.299.688a5.376 5.376 0 0 1-.926 1.434c-.379.418-1.006.628-1.883.628-.717 0-1.394-.1-2.032-.3v3.676c.339.18.727.31 1.166.389.458.08.926.12 1.404.12Z" fill="#000"/></svg>